<svg width="28" height="28" viewBox="0 0 28 28" fill="none" xmlns="http://www.w3.org/2000/svg">
<g id="3">
<circle id="BG" cx="13.9276" cy="13.5855" r="13.5855" fill="#F9F9F7" fill-opacity="0.12"/>
<g id="logo-instagram 1">
<g id="Group">
<path id="Vector" d="M13.9293 8.20062C15.6845 8.20062 15.8923 8.20719 16.5857 8.23881C17.0026 8.24391 17.4155 8.32046 17.8065 8.46513C18.09 8.57449 18.3476 8.742 18.5625 8.9569C18.7774 9.1718 18.9449 9.42932 19.0542 9.71287C19.1989 10.1039 19.2754 10.5168 19.2806 10.9337C19.3119 11.6271 19.3187 11.8349 19.3187 13.5901C19.3187 15.3452 19.3122 15.5531 19.2806 16.2464C19.2754 16.6633 19.1989 17.0763 19.0542 17.4673C18.9449 17.7508 18.7774 18.0083 18.5625 18.2232C18.3476 18.4381 18.09 18.6056 17.8065 18.715C17.4155 18.8597 17.0026 18.9362 16.5857 18.9413C15.8926 18.9726 15.6848 18.9795 13.9293 18.9795C12.1738 18.9795 11.966 18.9729 11.2729 18.9413C10.856 18.9362 10.4431 18.8597 10.0521 18.715C9.76854 18.6056 9.51103 18.4381 9.29613 18.2232C9.08123 18.0083 8.91371 17.7508 8.80436 17.4673C8.65969 17.0763 8.58314 16.6633 8.57804 16.2464C8.54673 15.5531 8.53985 15.3452 8.53985 13.5901C8.53985 11.8349 8.54642 11.6271 8.57804 10.9337C8.58314 10.5168 8.65969 10.1039 8.80436 9.71287C8.91371 9.42932 9.08123 9.1718 9.29613 8.9569C9.51103 8.742 9.76854 8.57449 10.0521 8.46513C10.4431 8.32046 10.856 8.24391 11.2729 8.23881C11.9663 8.20751 12.1741 8.20062 13.9293 8.20062ZM13.9293 7.01611C12.145 7.01611 11.9203 7.02363 11.2191 7.05556C10.6735 7.06641 10.1337 7.16971 9.62262 7.36107C9.18422 7.52625 8.78714 7.78509 8.45908 8.11955C8.12433 8.44772 7.86526 8.84503 7.69999 9.28371C7.50862 9.79476 7.40532 10.3346 7.39447 10.8802C7.36316 11.5807 7.35565 11.8055 7.35565 13.5898C7.35565 15.374 7.36316 15.5988 7.39509 16.3C7.40595 16.8456 7.50925 17.3854 7.70061 17.8964C7.86571 18.3351 8.12456 18.7324 8.45908 19.0606C8.78732 19.3951 9.18462 19.654 9.62325 19.8191C10.1343 20.0104 10.6741 20.1137 11.2197 20.1246C11.9209 20.1559 12.1447 20.164 13.9299 20.164C15.7151 20.164 15.9389 20.1565 16.6401 20.1246C17.1857 20.1137 17.7255 20.0104 18.2366 19.8191C18.6731 19.6498 19.0696 19.3914 19.4005 19.0602C19.7315 18.7291 19.9897 18.3325 20.1586 17.8958C20.35 17.3848 20.4533 16.8449 20.4641 16.2993C20.4954 15.5988 20.5029 15.374 20.5029 13.5898C20.5029 11.8055 20.4954 11.5807 20.4635 10.8795C20.4526 10.3339 20.3493 9.79413 20.158 9.28308C19.9929 8.84446 19.734 8.44715 19.3995 8.11892C19.0713 7.78439 18.674 7.52554 18.2353 7.36045C17.7243 7.16909 17.1845 7.06578 16.6389 7.05493C15.9383 7.02363 15.7136 7.01611 13.9293 7.01611Z" fill="white"/>
<path id="Vector_2" d="M13.9276 10.2178C13.2599 10.2178 12.6073 10.4158 12.0522 10.7867C11.497 11.1576 11.0643 11.6848 10.8088 12.3017C10.5533 12.9185 10.4865 13.5972 10.6167 14.2521C10.747 14.9069 11.0685 15.5084 11.5406 15.9805C12.0127 16.4526 12.6142 16.7741 13.269 16.9044C13.9239 17.0346 14.6026 16.9678 15.2194 16.7123C15.8363 16.4568 16.3635 16.0241 16.7344 15.4689C17.1053 14.9138 17.3033 14.2611 17.3033 13.5935C17.3033 12.6982 16.9477 11.8396 16.3146 11.2065C15.6815 10.5734 14.8229 10.2178 13.9276 10.2178ZM13.9276 15.7847C13.4942 15.7847 13.0706 15.6562 12.7102 15.4154C12.3499 15.1746 12.069 14.8324 11.9032 14.432C11.7373 14.0316 11.6939 13.5911 11.7785 13.166C11.863 12.741 12.0717 12.3505 12.3782 12.0441C12.6846 11.7376 13.0751 11.5289 13.5001 11.4444C13.9252 11.3598 14.3658 11.4032 14.7661 11.5691C15.1665 11.7349 15.5088 12.0158 15.7495 12.3761C15.9903 12.7365 16.1188 13.1601 16.1188 13.5935C16.1188 14.1746 15.888 14.732 15.477 15.1429C15.0661 15.5538 14.5087 15.7847 13.9276 15.7847Z" fill="white"/>
<path id="Vector_3" d="M17.4481 10.8711C17.8838 10.8711 18.237 10.518 18.237 10.0823C18.237 9.64663 17.8838 9.29346 17.4481 9.29346C17.0125 9.29346 16.6593 9.64663 16.6593 10.0823C16.6593 10.518 17.0125 10.8711 17.4481 10.8711Z" fill="white"/>
</g>
</g>
</g>
</svg>
