<svg width="28" height="28" viewBox="0 0 28 28" fill="none" xmlns="http://www.w3.org/2000/svg">
<g id="4">
<circle id="BG" cx="14.0987" cy="13.5855" r="13.5855" fill="#F9F9F7" fill-opacity="0.12"/>
<g id="logo-github 1">
<g id="Group">
<path id="Vector" fill-rule="evenodd" clip-rule="evenodd" d="M14.7061 7.01611C11.2215 7.01611 8.41809 9.81954 8.41809 13.3042C8.41809 16.0814 10.2259 18.4394 12.7149 19.2778C13.0293 19.3302 13.1341 19.1468 13.1341 18.9634C13.1341 18.8062 13.1341 18.4132 13.1341 17.8892C11.3787 18.2822 11.0119 17.0508 11.0119 17.0508C10.7237 16.3172 10.3045 16.1338 10.3045 16.1338C9.7281 15.7408 10.3569 15.7408 10.3569 15.7408C10.9857 15.7932 11.3263 16.3958 11.3263 16.3958C11.8765 17.3652 12.7935 17.077 13.1603 16.9198C13.2127 16.5006 13.3699 16.2386 13.5533 16.0814C12.1647 15.9242 10.6975 15.374 10.6975 12.9636C10.6975 12.2824 10.9333 11.706 11.3525 11.2868C11.3001 11.1295 11.0643 10.5007 11.4049 9.60994C11.4049 9.60994 11.9289 9.45273 13.1341 10.2649C13.6319 10.1339 14.1821 10.0553 14.7061 10.0553C15.2302 10.0553 15.7804 10.1339 16.2782 10.2649C17.4834 9.45273 18.0074 9.60994 18.0074 9.60994C18.348 10.4745 18.1384 11.1033 18.0598 11.2868C18.4528 11.7322 18.7148 12.2824 18.7148 12.9636C18.7148 15.374 17.2476 15.898 15.8328 16.0552C16.0686 16.2386 16.252 16.6316 16.252 17.208C16.252 18.0464 16.252 18.7276 16.252 18.9372C16.252 19.0944 16.3568 19.304 16.6974 19.2516C19.1864 18.4394 20.9942 16.0814 20.9942 13.3042C20.9942 9.81954 18.1908 7.01611 14.7061 7.01611Z" fill="white"/>
</g>
</g>
</g>
</svg>
